<svg height="512pt" viewBox="0 0 512 512" width="512pt" xmlns="http://www.w3.org/2000/svg"><path d="m512 256c0 141.386719-114.613281 256-256 256s-256-114.613281-256-256 114.613281-256 256-256 256 114.613281 256 256zm0 0" fill="#3d4159"/><path d="m489.996094 214.484375v145.503906c-3.226563 7.238281-6.769532 14.3125-10.636719 21.179688-12.734375 22.671875-28.816406 43.214843-47.582031 60.9375-45.851563 43.332031-107.710938 69.894531-175.773438 69.894531-87.167968 0-164.152344-43.5625-210.371094-110.101562-9.140624-13.132813-17.0625-27.167969-23.632812-41.933594v-145.480469zm0 0" fill="#cc7a3b"/><path d="m489.996094 254.191406v63.457032c-4.523438 2.183593-9.589844 3.417968-14.960938 3.417968h-438.074218c-5.359376 0-10.4375-1.234375-14.960938-3.417968v-63.457032zm0 0" fill="#a35418"/><path d="m130.617188 33.800781v120.082031h248.683593v-120.082031c0-18.667969-15.132812-33.800781-33.800781-33.800781h-181.082031c-18.667969 0-33.800781 15.132812-33.800781 33.800781zm207.933593 6.949219v72.378906h-167.183593v-72.378906z" fill="#a35418"/><path d="m475.039062 291.808594h-438.078124c-18.960938 0-34.332032-15.371094-34.332032-34.332032v-136.136718c0-18.960938 15.371094-34.332032 34.332032-34.332032h438.078124c18.960938 0 34.332032 15.371094 34.332032 34.332032v136.136718c0 18.960938-15.371094 34.332032-34.332032 34.332032zm0 0" fill="#cc7a3b"/><path d="m26.660156 257.476562v-136.136718c0-18.960938 15.367188-34.332032 34.332032-34.332032h-24.03125c-18.960938 0-34.332032 15.371094-34.332032 34.332032v136.136718c0 18.960938 15.371094 34.332032 34.332032 34.332032h24.03125c-18.960938 0-34.332032-15.371094-34.332032-34.332032zm0 0" fill="#a35418"/><path d="m390.683594 291.808594h-68.960938v135.488281c0 19.042969 15.4375 34.480469 34.480469 34.480469s34.480469-15.4375 34.480469-34.480469zm0 0" fill="#a35418"/><path d="m308.660156 352.09375v69.253906c0 7.132813 5.78125 12.914063 12.914063 12.914063h69.257812c7.132813 0 12.914063-5.78125 12.914063-12.914063v-69.253906c0-7.136719-5.78125-12.917969-12.914063-12.917969h-69.257812c-7.132813 0-12.914063 5.78125-12.914063 12.917969zm71.050782 58.136719h-47.019532v-47.023438h47.019532zm0 0" fill="#ffe152"/><path d="m356.203125 392.378906c-4.351563 0-7.882813-3.527344-7.882813-7.878906v-32.089844h15.761719v32.089844c0 4.351562-3.527343 7.878906-7.878906 7.878906zm0 0" fill="#ffe152"/><path d="m190.277344 291.808594h-68.960938v135.488281c0 19.042969 15.4375 34.480469 34.480469 34.480469s34.480469-15.4375 34.480469-34.480469zm0 0" fill="#a35418"/><path d="m108.253906 352.09375v69.253906c0 7.132813 5.78125 12.914063 12.917969 12.914063h69.253906c7.132813 0 12.914063-5.78125 12.914063-12.914063v-69.253906c0-7.136719-5.78125-12.917969-12.914063-12.917969h-69.253906c-7.136719 0-12.917969 5.78125-12.917969 12.917969zm71.054688 58.136719h-47.019532v-47.023438h47.019532zm0 0" fill="#ffe152"/><path d="m155.796875 392.378906c-4.351563 0-7.878906-3.527344-7.878906-7.878906v-32.089844h15.757812v32.089844c.003907 4.351562-3.523437 7.878906-7.878906 7.878906zm0 0" fill="#ffe152"/><path d="m45.632812 293.898438v108c-9.140624-13.132813-17.0625-27.167969-23.632812-41.933594v-66.066406zm0 0" fill="#a35418"/><path d="m256 124.191406 65.210938 65.214844-65.210938 65.210938-65.214844-65.210938zm0 0" fill="#ffe152"/><path d="m230.785156 164.191406h50.429688v50.433594h-50.429688zm0 0" fill="#e8c934"/></svg>